HIERARCHY
ROOT Hips
{
	OFFSET -0.001795 -0.223333 0.028219
	CHANNELS 6 Xposition Yposition Zposition Zrotation Yrotation Xrotation 
	JOINT LeftUpLeg
	{
		OFFSET 0.069520 -0.091406 -0.006815
		CHANNELS 3 Zrotation Yrotation Xrotation
		JOINT LeftLeg
		{
			OFFSET 0.034277 -0.375199 -0.004496
			CHANNELS 3 Zrotation Yrotation Xrotation
			JOINT LeftFoot
			{
				OFFSET -0.013596 -0.397961 -0.043693
				CHANNELS 3 Zrotation Yrotation Xrotation
				JOINT LeftToe
				{
					OFFSET 0.026358 -0.055791 0.119288
					CHANNELS 3 Zrotation Yrotation Xrotation
					End Site
					{
						OFFSET 0.000000 0.000000 0.000000
					}
				}
			}
		}
	}
	JOINT RightUpLeg
	{
		OFFSET -0.067670 -0.090522 -0.004320
		CHANNELS 3 Zrotation Yrotation Xrotation
		JOINT RightLeg
		{
			OFFSET -0.038290 -0.382569 -0.008850
			CHANNELS 3 Zrotation Yrotation Xrotation
			JOINT RightFoot
			{
				OFFSET 0.015774 -0.398415 -0.042312
				CHANNELS 3 Zrotation Yrotation Xrotation
				JOINT RightToe
				{
					OFFSET -0.025372 -0.048144 0.123348
					CHANNELS 3 Zrotation Yrotation Xrotation
					End Site
					{
						OFFSET 0.000000 0.000000 0.000000
					}
				}
			}
		}
	}
	JOINT Spine
	{
		OFFSET -0.002533 0.108963 -0.026696
		CHANNELS 3 Zrotation Yrotation Xrotation
		JOINT Spine1
		{
			OFFSET 0.005487 0.135180 0.001092
			CHANNELS 3 Zrotation Yrotation Xrotation
			JOINT Spine2
			{
				OFFSET 0.001457 0.052922 0.025425
				CHANNELS 3 Zrotation Yrotation Xrotation
				JOINT Neck
				{
					OFFSET -0.002778 0.213870 -0.042857
					CHANNELS 3 Zrotation Yrotation Xrotation
					JOINT Head
					{
						OFFSET 0.005152 0.064970 0.051349
						CHANNELS 3 Zrotation Yrotation Xrotation
						End Site
						{
							OFFSET 0.000000 0.000000 0.000000
						}
					}
				}
				JOINT LeftShoulder
				{
					OFFSET 0.078845 0.121749 -0.034090
					CHANNELS 3 Zrotation Yrotation Xrotation
					JOINT LeftArm
					{
						OFFSET 0.090977 0.030469 -0.008868
						CHANNELS 3 Zrotation Yrotation Xrotation
						JOINT LeftForeArm
						{
							OFFSET 0.259612 -0.012772 -0.027456
							CHANNELS 3 Zrotation Yrotation Xrotation
							JOINT LeftHand
							{
								OFFSET 0.249234 0.008986 -0.001171
								CHANNELS 3 Zrotation Yrotation Xrotation
								End Site
								{
									OFFSET 0.000000 0.000000 0.000000
								}
							}
						}
					}
				}
				JOINT RightShoulder
				{
					OFFSET -0.081759 0.118833 -0.038615
					CHANNELS 3 Zrotation Yrotation Xrotation
					JOINT RightArm
					{
						OFFSET -0.096012 0.032551 -0.009143
						CHANNELS 3 Zrotation Yrotation Xrotation
						JOINT RightForeArm
						{
							OFFSET -0.253742 -0.013329 -0.021401
							CHANNELS 3 Zrotation Yrotation Xrotation
							JOINT RightHand
							{
								OFFSET -0.255298 0.007772 -0.005559
								CHANNELS 3 Zrotation Yrotation Xrotation
								End Site
								{
									OFFSET 0.000000 0.000000 0.000000
								}
							}
						}
					}
				}
			}
		}
	}
}
MOTION
Frames: 14
Frame Time: 0.050000
0.012940 0.954700 0.101769 -4.489735 -22.845947 6.669674 7.100030 0.478017 4.396975 -4.889393 0.856084 1.337107 15.774912 26.440523 20.525889 0.000000 0.000000 0.000000 0.615263 2.760440 -20.322339 -1.586248 1.258806 12.853023 -0.862088 -16.916198 39.467957 0.000000 0.000000 0.000000 7.400208 -0.607675 5.005835 -3.636370 1.424183 -32.531649 -10.631472 -15.046523 28.237822 11.318081 -6.092435 -39.499162 0.000000 0.000000 0.000000 27.645959 -31.194974 0.148437 26.899458 -49.809631 -5.964418 46.466738 9.342394 5.420957 0.000000 0.000000 0.000000 -8.028732 2.670477 3.107458 -24.580888 63.536312 -31.009549 -51.015971 16.207220 -9.771364 0.000000 0.000000 0.000000 
0.015802 0.955481 0.100507 -4.271320 -23.176503 7.006563 6.678044 0.456569 4.124558 -5.303393 0.911937 0.531034 16.751843 27.549060 21.476728 0.000000 0.000000 0.000000 0.200823 2.841848 -20.944143 -1.613266 1.225274 12.501682 -0.812067 -17.072718 40.839437 0.000000 0.000000 0.000000 7.944287 -0.601191 4.691704 -3.955419 1.436928 -31.992162 -10.962696 -15.507304 28.804606 10.502559 -5.935959 -39.720603 0.000000 0.000000 0.000000 28.256327 -31.883322 -0.024293 27.535800 -49.152960 -5.829290 45.012872 9.289283 5.155493 0.000000 0.000000 0.000000 -7.995121 2.904818 3.169083 -25.329803 62.715832 -31.246414 -47.909891 16.633520 -9.327511 0.000000 0.000000 0.000000 
0.018386 0.956388 0.100582 -3.979415 -23.454041 7.246138 6.041909 0.440223 3.991035 -5.204612 0.886294 0.108410 16.867529 27.652603 21.606619 0.000000 0.000000 0.000000 -0.103919 2.892318 -21.343716 -2.151023 1.276725 12.113741 -0.184992 -16.632426 42.075195 0.000000 0.000000 0.000000 8.485197 -0.616703 4.652110 -4.031700 1.424767 -31.664854 -11.054851 -15.682155 28.539444 9.456202 -5.656173 -39.540981 0.000000 0.000000 0.000000 29.444585 -31.937772 -0.485931 28.224946 -49.759075 -5.927777 42.528870 10.706014 5.226386 0.000000 0.000000 0.000000 -8.682461 2.982851 3.453506 -24.706727 62.535784 -30.994133 -45.843820 16.940163 -9.075301 0.000000 0.000000 0.000000 
0.021036 0.956843 0.101535 -3.535171 -23.217500 7.325316 5.503507 0.407560 3.734133 -5.522992 0.933637 -0.118594 17.145155 28.042326 21.665483 0.000000 0.000000 0.000000 -1.061017 2.834341 -21.652017 -1.925817 1.186188 11.726462 0.093029 -16.472014 44.097061 0.000000 0.000000 0.000000 8.931918 -0.591299 4.266296 -4.356644 1.441373 -31.015915 -11.241304 -16.267068 28.983721 8.704868 -5.524895 -39.562635 0.000000 0.000000 0.000000 29.919811 -32.567584 -0.596996 30.146068 -49.538153 -6.361874 40.441236 11.631342 5.099576 0.000000 0.000000 0.000000 -8.376861 3.110741 3.385429 -25.141301 62.274701 -31.276083 -44.851723 17.627791 -9.157572 0.000000 0.000000 0.000000 
0.023864 0.956756 0.102412 -3.195922 -23.394606 7.371208 4.930968 0.370969 3.333758 -5.683997 0.967100 -0.066399 17.859124 28.797275 22.435156 0.000000 0.000000 0.000000 -1.401211 2.852018 -21.937709 -2.128387 1.204924 11.581011 -0.563066 -17.179709 44.944007 0.000000 0.000000 0.000000 9.167926 -0.635855 4.618996 -4.252225 1.404826 -30.745194 -11.157001 -16.273030 29.023807 8.638363 -5.606683 -39.338674 0.000000 0.000000 0.000000 30.342208 -32.671509 -0.769066 31.866122 -50.069860 -6.950647 40.092515 12.707014 5.289777 0.000000 0.000000 0.000000 -7.968069 2.913704 3.185871 -25.157091 62.499618 -31.417713 -45.097837 18.103010 -9.402768 0.000000 0.000000 0.000000 
0.026831 0.956405 0.102632 -2.824519 -23.743223 7.129824 4.340446 0.317374 2.659402 -5.684934 1.005462 0.776021 18.697479 29.486390 23.817826 0.000000 0.000000 0.000000 -2.202704 2.837465 -22.307342 -1.710293 1.165918 11.826871 -0.764934 -17.472710 46.370586 0.000000 0.000000 0.000000 9.342544 -0.697250 5.231778 -3.831493 1.267017 -29.766697 -11.115958 -16.321405 29.133647 8.181843 -5.592300 -39.114315 0.000000 0.000000 0.000000 30.795951 -32.197302 -1.108528 33.897510 -50.366340 -7.496498 39.981132 13.990573 5.624099 0.000000 0.000000 0.000000 -7.637380 2.497756 2.959026 -26.212901 62.886939 -32.432621 -47.406504 18.122108 -9.983009 0.000000 0.000000 0.000000 
0.029814 0.956079 0.102167 -2.434366 -24.078740 7.203616 3.990259 0.259042 1.966348 -5.999984 1.089108 1.159618 19.042305 29.635238 24.681812 0.000000 0.000000 0.000000 -2.423950 2.851932 -22.477119 -2.225642 1.242342 11.702136 -0.596190 -17.339160 45.171145 0.000000 0.000000 0.000000 9.211006 -0.776728 6.039249 -3.192608 1.119432 -29.400442 -11.179694 -16.273271 29.019479 8.182546 -5.721635 -38.641262 0.000000 0.000000 0.000000 31.649548 -31.902380 -1.499348 34.947363 -50.633618 -7.720158 41.233178 15.348748 6.319562 0.000000 0.000000 0.000000 -6.788416 2.360559 2.593816 -25.473067 63.944694 -32.578135 -50.350573 18.501769 -10.857883 0.000000 0.000000 0.000000 
0.032877 0.955452 0.101436 -1.918836 -24.343984 7.120650 3.545219 0.191098 1.206977 -6.245245 1.170131 1.719857 19.394174 29.722038 25.769206 0.000000 0.000000 0.000000 -3.083720 2.862655 -22.926605 -2.382150 1.264016 11.648911 -0.583757 -17.425765 46.342573 0.000000 0.000000 0.000000 9.111361 -0.851483 6.890683 -2.853968 1.066101 -29.413846 -11.520484 -16.513435 29.579733 8.154384 -5.906639 -38.324813 0.000000 0.000000 0.000000 31.996051 -31.449683 -1.810828 35.733492 -51.129181 -7.917682 41.687295 16.363709 6.748433 0.000000 0.000000 0.000000 -5.997333 2.328930 2.258589 -24.019666 64.563661 -32.046764 -53.684393 19.829072 -12.462353 0.000000 0.000000 0.000000 
0.036463 0.955187 0.100698 -1.484563 -25.000013 7.094438 3.214028 0.133005 0.509073 -6.822314 1.330840 2.162457 20.029391 30.060440 27.123140 0.000000 0.000000 0.000000 -3.376082 2.947185 -23.459434 -3.097527 1.412906 11.787617 0.102592 -16.940836 46.677631 0.000000 0.000000 0.000000 9.176793 -0.948633 8.007429 -2.614250 1.031913 -29.571442 -11.854513 -16.919180 30.052934 8.593983 -6.248529 -38.304890 0.000000 0.000000 0.000000 32.284753 -30.562034 -2.191810 35.574168 -51.431822 -7.608243 42.169560 16.579323 6.999360 0.000000 0.000000 0.000000 -5.131669 2.131174 1.824413 -23.889219 65.594981 -32.839913 -56.752148 20.706777 -13.800000 0.000000 0.000000 0.000000 
0.040887 0.954222 0.100096 -0.990168 -25.847793 7.215624 2.395476 0.045580 -0.280552 -6.735239 1.364570 2.682772 20.342986 30.163135 27.779942 0.000000 0.000000 0.000000 -3.844503 3.037845 -24.083754 -3.476105 1.464024 11.631122 0.034207 -17.171974 46.772042 0.000000 0.000000 0.000000 9.474802 -1.052484 9.125126 -2.463095 1.040237 -29.998150 -12.316789 -16.987065 31.165134 8.923255 -6.710786 -37.811269 0.000000 0.000000 0.000000 32.147970 -29.598862 -2.501218 36.806951 -51.929416 -7.905412 41.999871 17.466857 7.233436 0.000000 0.000000 0.000000 -4.408461 1.675027 1.336601 -24.395461 66.512941 -34.023107 -59.598304 21.758456 -15.187939 0.000000 0.000000 0.000000 
0.046118 0.953452 0.099108 -0.540681 -26.325102 7.408354 1.893946 -0.037179 -1.073828 -7.366131 1.557597 3.226600 20.426794 30.425018 27.101177 0.000000 0.000000 0.000000 -4.162921 3.126191 -24.669774 -3.968938 1.537228 11.517021 -0.488982 -17.729128 46.257537 0.000000 0.000000 0.000000 9.749516 -1.167923 10.375054 -1.980396 0.949813 -29.986282 -12.704179 -17.340399 31.243960 9.079137 -6.950977 -37.459438 0.000000 0.000000 0.000000 32.251221 -28.735392 -2.739503 37.927055 -52.906888 -8.358506 41.050159 18.651615 7.367052 0.000000 0.000000 0.000000 -3.755005 1.358139 0.924772 -24.101717 67.505961 -34.514203 -62.698925 22.538200 -16.577158 0.000000 0.000000 0.000000 
0.051642 0.952138 0.097454 -0.058034 -27.166173 7.427744 1.131509 -0.139764 -1.957337 -7.433514 1.662116 4.044944 20.597692 30.541494 27.124539 0.000000 0.000000 0.000000 -4.694033 3.263489 -25.561225 -4.191201 1.642318 11.925937 -0.599514 -17.976329 45.985428 0.000000 0.000000 0.000000 10.134573 -1.275593 11.677256 -2.211967 0.990852 -29.978750 -12.888335 -17.607097 32.026779 8.937500 -7.219623 -37.014051 0.000000 0.000000 0.000000 32.333183 -27.772577 -3.118328 39.542764 -53.903331 -8.893994 39.922192 19.989306 7.444462 0.000000 0.000000 0.000000 -3.278221 1.303313 0.632143 -24.341037 68.036467 -35.274875 -65.464146 22.824907 -17.688146 0.000000 0.000000 0.000000 
0.056907 0.950633 0.095045 0.314471 -28.014124 7.644144 0.472142 -0.256419 -3.019013 -7.663191 1.820586 4.912318 20.980948 31.104581 26.624902 0.000000 0.000000 0.000000 -5.133003 3.458760 -26.646802 -4.097829 1.655629 12.086397 -1.801924 -19.235847 46.427853 0.000000 0.000000 0.000000 10.349224 -1.362408 12.917650 -1.886714 0.905819 -29.729632 -13.273836 -17.302116 31.975205 9.185171 -7.268575 -37.348719 0.000000 0.000000 0.000000 32.366993 -27.236319 -3.241972 39.994989 -54.727263 -9.245487 39.469187 19.867375 7.225757 0.000000 0.000000 0.000000 -2.168452 1.856195 0.255491 -22.755361 68.760655 -34.350069 -65.496599 23.976163 -18.312863 0.000000 0.000000 0.000000 
0.061504 0.948473 0.092200 0.720357 -29.066020 7.625119 0.136650 -0.354736 -4.082378 -7.948987 2.054480 6.156408 20.771299 30.757990 26.446908 0.000000 0.000000 0.000000 -5.539434 3.715469 -27.946606 -3.773153 1.740990 12.977099 -3.388291 -20.822938 46.488878 0.000000 0.000000 0.000000 10.853665 -1.461109 14.307495 -2.684461 1.027797 -29.566241 -13.084949 -16.878659 32.569501 8.785369 -7.404225 -36.586665 0.000000 0.000000 0.000000 31.916551 -27.050756 -3.229382 40.556313 -56.848014 -10.232933 40.149954 20.461854 7.374879 0.000000 0.000000 0.000000 -1.460018 2.209912 0.011316 -19.392113 69.179877 -32.055436 -64.889146 25.470744 -19.139131 0.000000 0.000000 0.000000 
